<svg width="18" height="18" viewBox="0 0 18 18" fill="none" xmlns="http://www.w3.org/2000/svg">
<path d="M16.75 0.25H1.74609C1.05859 0.25 0.5 0.816406 0.5 1.51172V16.4883C0.5 17.1836 1.05859 17.75 1.74609 17.75H16.75C17.4375 17.75 18 17.1836 18 16.4883V1.51172C18 0.816406 17.4375 0.25 16.75 0.25ZM5.78906 15.25H3.19531V6.89844H5.79297V15.25H5.78906ZM4.49219 5.75781C3.66016 5.75781 2.98828 5.08203 2.98828 4.25391C2.98828 3.42578 3.66016 2.75 4.49219 2.75C5.32031 2.75 5.99609 3.42578 5.99609 4.25391C5.99609 5.08594 5.32422 5.75781 4.49219 5.75781ZM15.5117 15.25H12.918V11.1875C12.918 10.2188 12.8984 8.97266 11.5703 8.97266C10.2188 8.97266 10.0117 10.0273 10.0117 11.1172V15.25H7.41797V6.89844H9.90625V8.03906H9.94141C10.2891 7.38281 11.1367 6.69141 12.3984 6.69141C15.0234 6.69141 15.5117 8.42188 15.5117 10.6719V15.25Z" fill="white"/>
</svg>
